<svg width="20" height="20" viewBox="0 0 20 20" fill="none" xmlns="http://www.w3.org/2000/svg">
<g clip-path="url(#clip0_235_800)">
<path d="M9.99283 19.5975C16.13 19.5975 19.5814 16.1461 19.5814 10.0075C19.5814 3.79609 15.7685 0.418945 9.99283 0.418945C3.85569 0.418945 0.402832 3.87037 0.402832 10.0075C0.402832 16.1461 3.85569 19.5975 9.99283 19.5975Z" fill="#8FBFFA"/>
<path fill-rule="evenodd" clip-rule="evenodd" d="M2.50003 10.0073C2.50003 7.46444 3.21146 5.62873 4.41289 4.42872C5.61289 3.22872 7.44861 2.51444 9.99289 2.51444C10.2771 2.51444 10.5496 2.40156 10.7505 2.20063C10.9514 1.99969 11.0643 1.72717 11.0643 1.44301C11.0643 1.15885 10.9514 0.886328 10.7505 0.685396C10.5496 0.484464 10.2771 0.371582 9.99289 0.371582C7.05432 0.371582 4.60718 1.20158 2.89718 2.91301C1.18718 4.62444 0.357178 7.07015 0.357178 10.0073C0.357178 12.9459 1.18575 15.3916 2.89718 17.103C4.60861 18.813 7.05432 19.643 9.99289 19.643C12.93 19.643 15.3758 18.8144 17.0872 17.103C18.7972 15.3916 19.6272 12.9459 19.6272 10.0073C19.6272 9.72314 19.5143 9.45061 19.3134 9.24968C19.1124 9.04875 18.8399 8.93587 18.5557 8.93587C18.2716 8.93587 17.9991 9.04875 17.7981 9.24968C17.5972 9.45061 17.4843 9.72314 17.4843 10.0073C17.4843 12.5502 16.7729 14.3859 15.5715 15.5873C14.3715 16.7873 12.5357 17.5002 9.99289 17.5002C7.45004 17.5002 5.61289 16.7887 4.41289 15.5859C3.21289 14.3859 2.50003 12.5502 2.50003 10.0073ZM8.85861 6.74301C9.13576 6.68012 9.37657 6.5097 9.52808 6.26925C9.67958 6.0288 9.72936 5.73802 9.66646 5.46087C9.60357 5.18372 9.43315 4.9429 9.19271 4.7914C8.95226 4.6399 8.66147 4.59012 8.38432 4.65301C7.17003 4.92872 6.15861 5.54873 5.46432 6.51444C4.77861 7.46873 4.46718 8.66873 4.46718 10.0087C4.46718 11.6302 4.92718 13.0487 5.93861 14.0616C6.95146 15.073 8.37004 15.533 9.99289 15.533C11.3972 15.533 12.65 15.1902 13.6243 14.433C14.6086 13.6673 15.1986 12.5644 15.4172 11.2559C15.4444 11.1154 15.4433 10.9709 15.4138 10.8309C15.3843 10.6909 15.3271 10.5583 15.2455 10.4407C15.164 10.3232 15.0597 10.2232 14.9388 10.1466C14.818 10.0701 14.683 10.0185 14.5419 9.99491C14.4008 9.97134 14.2564 9.97628 14.1172 10.0094C13.978 10.0426 13.8469 10.1032 13.7315 10.1879C13.6162 10.2725 13.5189 10.3794 13.4456 10.5022C13.3722 10.6251 13.3242 10.7613 13.3043 10.903C13.1586 11.7716 12.8 12.3602 12.3086 12.7402C11.8072 13.1316 11.0586 13.3902 9.99289 13.3902C8.76432 13.3902 7.95718 13.0473 7.45432 12.5473C6.95289 12.0444 6.61146 11.2359 6.61146 10.0087C6.61146 8.99301 6.84575 8.26444 7.20575 7.76587C7.55575 7.2773 8.08575 6.91873 8.85861 6.74301Z" fill="#2859C5"/>
<path fill-rule="evenodd" clip-rule="evenodd" d="M16.3471 1.21863C16.3109 1.10098 16.2449 0.994683 16.1556 0.910041C16.0662 0.825399 15.9565 0.765287 15.8371 0.735535C15.7176 0.705783 15.5925 0.707401 15.4739 0.740232C15.3553 0.773063 15.2471 0.835992 15.16 0.922917L12.9857 3.0972C12.5546 3.52813 12.241 4.0622 12.0748 4.64858C11.9085 5.23497 11.895 5.85415 12.0357 6.4472L9.23569 9.24863C9.04042 9.45061 8.9323 9.72121 8.93461 10.0021C8.93691 10.2831 9.04947 10.5518 9.24803 10.7506C9.44659 10.9493 9.71526 11.0621 9.99619 11.0647C10.2771 11.0673 10.5478 10.9594 10.75 10.7643L13.55 7.96435C14.1435 8.10553 14.7632 8.09234 15.3501 7.92604C15.9371 7.75974 16.4716 7.44587 16.9028 7.01435L19.0757 4.84006C19.1626 4.75301 19.2256 4.64498 19.2585 4.52643C19.2915 4.40789 19.2932 4.28285 19.2636 4.16343C19.234 4.04401 19.1741 3.93427 19.0896 3.84482C19.0051 3.75538 18.8989 3.68928 18.7814 3.65292L16.9214 3.07863L16.3471 1.21863Z" fill="#2859C5"/>
</g>
<defs>
<clipPath id="clip0_235_800">
<rect width="20" height="20" fill="white"/>
</clipPath>
</defs>
</svg>
