<svg width="215" height="150" viewBox="0 0 215 150" fill="none" xmlns="http://www.w3.org/2000/svg">
<g filter="url(#filter0_i_218_358)">
<path d="M153.439 48.7013C153.439 75.5983 132.522 97.4026 106.719 97.4026C80.917 97.4026 60 75.5983 60 48.7013C60 21.8043 80.917 0 106.719 0C132.522 0 153.439 21.8043 153.439 48.7013Z" fill="#5A67BA"/>
<path d="M111.348 53.6951H102.964L101.62 57.6631H95.8916L104.02 35.1991H110.356L118.484 57.6631H112.692L111.348 53.6951ZM109.94 49.4711L107.156 41.2471L104.404 49.4711H109.94Z" fill="white"/>
<path d="M15.968 137.707H7.584L6.24 141.675H0.512L8.64 119.211H14.976L23.104 141.675H17.312L15.968 137.707ZM14.56 133.483L11.776 125.259L9.024 133.483H14.56ZM43.7098 123.819V141.675H38.2378V139.243C37.6831 140.033 36.9258 140.673 35.9658 141.163C35.0271 141.633 33.9818 141.867 32.8298 141.867C31.4644 141.867 30.2591 141.569 29.2138 140.971C28.1684 140.353 27.3578 139.467 26.7818 138.315C26.2058 137.163 25.9178 135.809 25.9178 134.251V123.819H31.3578V133.515C31.3578 134.71 31.6671 135.638 32.2858 136.299C32.9044 136.961 33.7364 137.291 34.7818 137.291C35.8484 137.291 36.6911 136.961 37.3098 136.299C37.9284 135.638 38.2378 134.71 38.2378 133.515V123.819H43.7098ZM58.0923 137.035V141.675H55.3083C53.3243 141.675 51.7776 141.195 50.6683 140.235C49.5589 139.254 49.0043 137.665 49.0043 135.467V128.363H46.8283V123.819H49.0043V119.467H54.4763V123.819H58.0603V128.363H54.4763V135.531C54.4763 136.065 54.6043 136.449 54.8603 136.683C55.1163 136.918 55.5429 137.035 56.1403 137.035H58.0923ZM69.7683 141.931C68.0189 141.931 66.4403 141.558 65.0323 140.811C63.6456 140.065 62.5469 138.998 61.7363 137.611C60.9469 136.225 60.5523 134.603 60.5523 132.747C60.5523 130.913 60.9576 129.302 61.7682 127.915C62.5789 126.507 63.6883 125.43 65.0963 124.683C66.5043 123.937 68.0829 123.563 69.8323 123.563C71.5816 123.563 73.1603 123.937 74.5683 124.683C75.9763 125.43 77.0856 126.507 77.8963 127.915C78.7069 129.302 79.1123 130.913 79.1123 132.747C79.1123 134.582 78.6963 136.203 77.8643 137.611C77.0536 138.998 75.9336 140.065 74.5043 140.811C73.0963 141.558 71.5176 141.931 69.7683 141.931ZM69.7683 137.195C70.8136 137.195 71.6989 136.811 72.4243 136.043C73.1709 135.275 73.5443 134.177 73.5443 132.747C73.5443 131.318 73.1816 130.219 72.4563 129.451C71.7523 128.683 70.8776 128.299 69.8323 128.299C68.7656 128.299 67.8803 128.683 67.1763 129.451C66.4723 130.198 66.1203 131.297 66.1203 132.747C66.1203 134.177 66.4616 135.275 67.1443 136.043C67.8483 136.811 68.7229 137.195 69.7683 137.195ZM97.1393 119.211V123.595H87.9873V128.331H94.8353V132.587H87.9873V141.675H82.5153V119.211H97.1393ZM103.267 121.963C102.307 121.963 101.518 121.686 100.899 121.131C100.302 120.555 100.003 119.851 100.003 119.019C100.003 118.166 100.302 117.462 100.899 116.907C101.518 116.331 102.307 116.043 103.267 116.043C104.206 116.043 104.974 116.331 105.571 116.907C106.19 117.462 106.499 118.166 106.499 119.019C106.499 119.851 106.19 120.555 105.571 121.131C104.974 121.686 104.206 121.963 103.267 121.963ZM105.987 123.819V141.675H100.515V123.819H105.987ZM121.333 123.627C123.423 123.627 125.087 124.31 126.325 125.675C127.583 127.019 128.213 128.875 128.213 131.243V141.675H122.773V131.979C122.773 130.785 122.463 129.857 121.845 129.195C121.226 128.534 120.394 128.203 119.349 128.203C118.303 128.203 117.471 128.534 116.853 129.195C116.234 129.857 115.925 130.785 115.925 131.979V141.675H110.453V123.819H115.925V126.187C116.479 125.398 117.226 124.779 118.165 124.331C119.103 123.862 120.159 123.627 121.333 123.627ZM131.427 132.715C131.427 130.881 131.769 129.27 132.451 127.883C133.155 126.497 134.105 125.43 135.299 124.683C136.494 123.937 137.827 123.563 139.299 123.563C140.558 123.563 141.657 123.819 142.595 124.331C143.555 124.843 144.291 125.515 144.803 126.347V123.819H150.275V141.675H144.803V139.147C144.27 139.979 143.523 140.651 142.563 141.163C141.625 141.675 140.526 141.931 139.267 141.931C137.817 141.931 136.494 141.558 135.299 140.811C134.105 140.043 133.155 138.966 132.451 137.579C131.769 136.171 131.427 134.55 131.427 132.715ZM144.803 132.747C144.803 131.382 144.419 130.305 143.651 129.515C142.905 128.726 141.987 128.331 140.899 128.331C139.811 128.331 138.883 128.726 138.115 129.515C137.369 130.283 136.995 131.35 136.995 132.715C136.995 134.081 137.369 135.169 138.115 135.979C138.883 136.769 139.811 137.163 140.899 137.163C141.987 137.163 142.905 136.769 143.651 135.979C144.419 135.19 144.803 134.113 144.803 132.747ZM165.614 123.627C167.705 123.627 169.369 124.31 170.606 125.675C171.865 127.019 172.494 128.875 172.494 131.243V141.675H167.054V131.979C167.054 130.785 166.745 129.857 166.126 129.195C165.507 128.534 164.675 128.203 163.63 128.203C162.585 128.203 161.753 128.534 161.134 129.195C160.515 129.857 160.206 130.785 160.206 131.979V141.675H154.734V123.819H160.206V126.187C160.761 125.398 161.507 124.779 162.446 124.331C163.385 123.862 164.441 123.627 165.614 123.627ZM175.709 132.747C175.709 130.891 176.082 129.27 176.829 127.883C177.597 126.497 178.653 125.43 179.997 124.683C181.362 123.937 182.919 123.563 184.669 123.563C186.909 123.563 188.775 124.15 190.269 125.323C191.783 126.497 192.775 128.15 193.245 130.283H187.421C186.93 128.918 185.981 128.235 184.573 128.235C183.57 128.235 182.77 128.63 182.173 129.419C181.575 130.187 181.277 131.297 181.277 132.747C181.277 134.198 181.575 135.318 182.173 136.107C182.77 136.875 183.57 137.259 184.573 137.259C185.981 137.259 186.93 136.577 187.421 135.211H193.245C192.775 137.302 191.783 138.945 190.269 140.139C188.754 141.334 186.887 141.931 184.669 141.931C182.919 141.931 181.362 141.558 179.997 140.811C178.653 140.065 177.597 138.998 176.829 137.611C176.082 136.225 175.709 134.603 175.709 132.747ZM213.503 132.459C213.503 132.971 213.472 133.505 213.408 134.059H201.024C201.109 135.169 201.461 136.022 202.08 136.619C202.72 137.195 203.498 137.483 204.416 137.483C205.781 137.483 206.73 136.907 207.264 135.755H213.088C212.789 136.929 212.245 137.985 211.456 138.923C210.688 139.862 209.717 140.598 208.544 141.131C207.37 141.665 206.058 141.931 204.608 141.931C202.858 141.931 201.301 141.558 199.936 140.811C198.57 140.065 197.504 138.998 196.736 137.611C195.968 136.225 195.584 134.603 195.584 132.747C195.584 130.891 195.957 129.27 196.704 127.883C197.472 126.497 198.538 125.43 199.904 124.683C201.269 123.937 202.837 123.563 204.608 123.563C206.336 123.563 207.872 123.926 209.216 124.651C210.56 125.377 211.605 126.411 212.352 127.755C213.12 129.099 213.503 130.667 213.503 132.459ZM207.904 131.019C207.904 130.081 207.584 129.334 206.944 128.779C206.304 128.225 205.504 127.947 204.544 127.947C203.626 127.947 202.848 128.214 202.208 128.747C201.589 129.281 201.205 130.038 201.056 131.019H207.904Z" fill="#5A67BA"/>
</g>
<defs>
<filter id="filter0_i_218_358" x="0.511963" y="0" width="212.991" height="145.931" filterUnits="userSpaceOnUse" color-interpolation-filters="sRGB">
<feFlood flood-opacity="0" result="BackgroundImageFix"/>
<feBlend mode="normal" in="SourceGraphic" in2="BackgroundImageFix" result="shape"/>
<feColorMatrix in="SourceAlpha" type="matrix" values="0 0 0 0 0 0 0 0 0 0 0 0 0 0 0 0 0 0 127 0" result="hardAlpha"/>
<feOffset dy="4"/>
<feGaussianBlur stdDeviation="2"/>
<feComposite in2="hardAlpha" operator="arithmetic" k2="-1" k3="1"/>
<feColorMatrix type="matrix" values="0 0 0 0 0 0 0 0 0 0 0 0 0 0 0 0 0 0 0.25 0"/>
<feBlend mode="normal" in2="shape" result="effect1_innerShadow_218_358"/>
</filter>
</defs>
</svg>
